<?xml version="1.0" encoding="utf-8"?>
<!-- Generator: Adobe Illustrator 21.0.0, SVG Export Plug-In . SVG Version: 6.00 Build 0)  -->
<svg version="1.1" id="Layer_1" xmlns="http://www.w3.org/2000/svg" xmlns:xlink="http://www.w3.org/1999/xlink" x="0px" y="0px"
	 viewBox="0 0 32 32" style="enable-background:new 0 0 32 32;" xml:space="preserve">
<style type="text/css">
	.st0{fill:#FFFFFF;}
</style>
<path class="st0" d="M24,4.7L4.4,24.3c-0.9,0.9-0.9,2.4,0,3.3s2.4,0.9,3.3,0L27.2,8c0.9-0.9,0.9-2.4,0-3.3C26.3,3.8,24.9,3.8,24,4.7
	z"/>
<path class="st0" d="M27.6,24.3L8,4.7c-0.9-0.9-2.4-0.9-3.3,0C3.9,5.6,3.9,7.1,4.8,8l19.6,19.6c0.9,0.9,2.4,0.9,3.3,0
	C28.5,26.7,28.5,25.2,27.6,24.3z"/>
</svg>
